<svg width="350" height="75" viewBox="0 0 350 75" fill="none" xmlns="http://www.w3.org/2000/svg">
<ellipse cx="44.0184" cy="25.6615" rx="16.1043" ry="15.3969" fill="#E0DFD5"/>
<ellipse cx="44.0184" cy="46.1907" rx="16.1043" ry="15.3969" fill="#E0DFD5"/>
<ellipse cx="22.546" cy="35.9261" rx="20.3988" ry="35.9261" fill="#E4B363"/>
<path d="M2.29649 31.8203H42.7088C44.2652 35.2506 44.4899 37.0712 43.0829 40.0319H1.92231C0.693671 37.6355 0.782679 35.8333 2.29649 31.8203Z" fill="#313638" stroke="black" stroke-width="2"/>
<path d="M4.39863 51.323H41.5593C42.4357 54.818 41.3932 56.5245 39.3297 59.5347H6.62827C4.43014 56.6093 4.07318 54.7824 4.39863 51.323Z" fill="#313638" stroke="black" stroke-width="2"/>
<path d="M41.7641 20.5292H3.54163C2.64021 17.0342 3.71255 15.3277 5.83497 12.3175H39.4707C41.7317 15.2429 42.0988 17.0698 41.7641 20.5292Z" fill="#313638" stroke="black" stroke-width="2"/>
<path d="M78.2144 31.2507C79.0144 29.9507 80.1644 28.9007 81.6644 28.1007C83.1644 27.3007 84.8811 26.9007 86.8144 26.9007C89.1144 26.9007 91.1978 27.4841 93.0644 28.6507C94.9311 29.8174 96.3978 31.4841 97.4644 33.6507C98.5644 35.8174 99.1144 38.3341 99.1144 41.2007C99.1144 44.0674 98.5644 46.6007 97.4644 48.8007C96.3978 50.9674 94.9311 52.6507 93.0644 53.8507C91.1978 55.0174 89.1144 55.6007 86.8144 55.6007C84.8478 55.6007 83.1311 55.2174 81.6644 54.4507C80.1978 53.6507 79.0478 52.6007 78.2144 51.3007V55.2007H69.6644V18.2007H78.2144V31.2507ZM90.4144 41.2007C90.4144 39.0674 89.8144 37.4007 88.6144 36.2007C87.4478 34.9674 85.9978 34.3507 84.2644 34.3507C82.5644 34.3507 81.1144 34.9674 79.9144 36.2007C78.7478 37.4341 78.1644 39.1174 78.1644 41.2507C78.1644 43.3841 78.7478 45.0674 79.9144 46.3007C81.1144 47.5341 82.5644 48.1507 84.2644 48.1507C85.9644 48.1507 87.4144 47.5341 88.6144 46.3007C89.8144 45.0341 90.4144 43.3341 90.4144 41.2007ZM130.65 27.3007V55.2007H122.1V51.4007C121.233 52.6341 120.05 53.6341 118.55 54.4007C117.083 55.1341 115.45 55.5007 113.65 55.5007C111.517 55.5007 109.633 55.0341 108 54.1007C106.367 53.1341 105.1 51.7507 104.2 49.9507C103.3 48.1507 102.85 46.0341 102.85 43.6007V27.3007H111.35V42.4507C111.35 44.3174 111.833 45.7674 112.8 46.8007C113.767 47.8341 115.067 48.3507 116.7 48.3507C118.367 48.3507 119.683 47.8341 120.65 46.8007C121.617 45.7674 122.1 44.3174 122.1 42.4507V27.3007H130.65ZM144.291 48.1507H156.391V55.2007H134.741V48.4007L146.341 34.3507H134.841V27.3007H156.141V34.1007L144.291 48.1507ZM168.596 48.1507H180.696V55.2007H159.046V48.4007L170.646 34.3507H159.146V27.3007H180.446V34.1007L168.596 48.1507ZM193.451 31.2507C194.251 29.9507 195.401 28.9007 196.901 28.1007C198.401 27.3007 200.117 26.9007 202.051 26.9007C204.351 26.9007 206.434 27.4841 208.301 28.6507C210.167 29.8174 211.634 31.4841 212.701 33.6507C213.801 35.8174 214.351 38.3341 214.351 41.2007C214.351 44.0674 213.801 46.6007 212.701 48.8007C211.634 50.9674 210.167 52.6507 208.301 53.8507C206.434 55.0174 204.351 55.6007 202.051 55.6007C200.084 55.6007 198.367 55.2174 196.901 54.4507C195.434 53.6507 194.284 52.6007 193.451 51.3007V55.2007H184.901V18.2007H193.451V31.2507ZM205.651 41.2007C205.651 39.0674 205.051 37.4007 203.851 36.2007C202.684 34.9674 201.234 34.3507 199.501 34.3507C197.801 34.3507 196.351 34.9674 195.151 36.2007C193.984 37.4341 193.401 39.1174 193.401 41.2507C193.401 43.3841 193.984 45.0674 195.151 46.3007C196.351 47.5341 197.801 48.1507 199.501 48.1507C201.201 48.1507 202.651 47.5341 203.851 46.3007C205.051 45.0341 205.651 43.3341 205.651 41.2007ZM244.636 40.8007C244.636 41.6007 244.586 42.4341 244.486 43.3007H225.136C225.27 45.0341 225.82 46.3674 226.786 47.3007C227.786 48.2007 229.003 48.6507 230.436 48.6507C232.57 48.6507 234.053 47.7507 234.886 45.9507H243.986C243.52 47.7841 242.67 49.4341 241.436 50.9007C240.236 52.3674 238.72 53.5174 236.886 54.3507C235.053 55.1841 233.003 55.6007 230.736 55.6007C228.003 55.6007 225.57 55.0174 223.436 53.8507C221.303 52.6841 219.636 51.0174 218.436 48.8507C217.236 46.6841 216.636 44.1507 216.636 41.2507C216.636 38.3507 217.22 35.8174 218.386 33.6507C219.586 31.4841 221.253 29.8174 223.386 28.6507C225.52 27.4841 227.97 26.9007 230.736 26.9007C233.436 26.9007 235.836 27.4674 237.936 28.6007C240.036 29.7341 241.67 31.3507 242.836 33.4507C244.036 35.5507 244.636 38.0007 244.636 40.8007ZM235.886 38.5507C235.886 37.0841 235.386 35.9174 234.386 35.0507C233.386 34.1841 232.136 33.7507 230.636 33.7507C229.203 33.7507 227.986 34.1674 226.986 35.0007C226.02 35.8341 225.42 37.0174 225.186 38.5507H235.886ZM246.947 41.2007C246.947 38.3341 247.48 35.8174 248.547 33.6507C249.647 31.4841 251.13 29.8174 252.997 28.6507C254.864 27.4841 256.947 26.9007 259.247 26.9007C261.214 26.9007 262.93 27.3007 264.397 28.1007C265.897 28.9007 267.047 29.9507 267.847 31.2507V27.3007H276.397V55.2007H267.847V51.2507C267.014 52.5507 265.847 53.6007 264.347 54.4007C262.88 55.2007 261.164 55.6007 259.197 55.6007C256.93 55.6007 254.864 55.0174 252.997 53.8507C251.13 52.6507 249.647 50.9674 248.547 48.8007C247.48 46.6007 246.947 44.0674 246.947 41.2007ZM267.847 41.2507C267.847 39.1174 267.247 37.4341 266.047 36.2007C264.88 34.9674 263.447 34.3507 261.747 34.3507C260.047 34.3507 258.597 34.9674 257.397 36.2007C256.23 37.4007 255.647 39.0674 255.647 41.2007C255.647 43.3341 256.23 45.0341 257.397 46.3007C258.597 47.5341 260.047 48.1507 261.747 48.1507C263.447 48.1507 264.88 47.5341 266.047 46.3007C267.247 45.0674 267.847 43.3841 267.847 41.2507ZM317.682 27.0007C321.149 27.0007 323.899 28.0507 325.932 30.1507C327.999 32.2507 329.032 35.1674 329.032 38.9007V55.2007H320.532V40.0507C320.532 38.2507 320.049 36.8674 319.082 35.9007C318.149 34.9007 316.849 34.4007 315.182 34.4007C313.516 34.4007 312.199 34.9007 311.232 35.9007C310.299 36.8674 309.832 38.2507 309.832 40.0507V55.2007H301.332V40.0507C301.332 38.2507 300.849 36.8674 299.882 35.9007C298.949 34.9007 297.649 34.4007 295.982 34.4007C294.316 34.4007 292.999 34.9007 292.032 35.9007C291.099 36.8674 290.632 38.2507 290.632 40.0507V55.2007H282.082V27.3007H290.632V30.8007C291.499 29.6341 292.632 28.7174 294.032 28.0507C295.432 27.3507 297.016 27.0007 298.782 27.0007C300.882 27.0007 302.749 27.4507 304.382 28.3507C306.049 29.2507 307.349 30.5341 308.282 32.2007C309.249 30.6674 310.566 29.4174 312.232 28.4507C313.899 27.4841 315.716 27.0007 317.682 27.0007Z" fill="#445E93"/>
</svg>
